<svg width="84" height="64" viewBox="0 0 84 64" fill="none" xmlns="http://www.w3.org/2000/svg">
<path d="M0.00994327 64V46.4091C0.00994327 41.2173 0.987216 35.7507 2.94176 30.0092C4.89631 24.2677 7.61435 18.7706 11.0959 13.5178C14.5774 8.26491 18.6697 3.77556 23.3729 0.0497173L36.9325 9.76135C33.2067 15.1974 30.0305 20.8778 27.4041 26.8025C24.7777 32.7273 23.4645 39.1712 23.4645 46.1342V64H0.00994327ZM46.7358 64V46.4091C46.7358 41.2173 47.7131 35.7507 49.6676 30.0092C51.6222 24.2677 54.3402 18.7706 57.8217 13.5178C61.3033 8.26491 65.3956 3.77556 70.0987 0.0497173L83.6584 9.76135C79.9325 15.1974 76.7564 20.8778 74.13 26.8025C71.5036 32.7273 70.1903 39.1712 70.1903 46.1342V64H46.7358Z" fill="#B84770"/>
</svg>
